<?xml version="1.0" encoding="UTF-8"?>
<svg fill="#3C1053" width="100pt" height="100pt" version="1.1" viewBox="0 0 100 100" xmlns="http://www.w3.org/2000/svg">
 <path d="m50 10.938c-16.641 0-30.312 13.516-30.391 30.156 0.078125 6.25 1.9531 12.344 5.625 17.5 0.078125 0.15625 0.15625 0.3125 0.3125 0.46875l21.406 28.438 0.078125 0.078125c0.78125 0.9375 1.875 1.4062 2.9688 1.4062s2.1875-0.54688 2.9688-1.4062l0.078125-0.078125 21.328-28.438c0.23438-0.23438 0.39062-0.39062 0.54688-0.70312 3.5156-5.0781 5.3906-11.094 5.3906-17.266 0-16.562-13.594-30.156-30.312-30.156zm0 4.6875c14.141 0 25.625 11.484 25.625 25.547 0 5.2344-1.5625 10.234-4.6094 14.609-0.078125 0.078125-0.15625 0.15625-0.15625 0.23438l-20.859 27.812-20.781-27.734-0.078125-0.078125c0-0.078125-0.078125-0.078125-0.15625-0.15625-3.0469-4.375-4.6875-9.4531-4.6875-14.688 0.078125-14.141 11.641-25.547 25.703-25.547zm0 10.234c-8.125 0-14.766 6.4062-14.766 14.297s6.6406 14.375 14.766 14.375 14.766-6.4062 14.766-14.297-6.6406-14.375-14.766-14.375zm0 4.6875c5.5469 0 10.078 4.2969 10.078 9.6094s-4.5312 9.6875-10.078 9.6875-10.078-4.2969-10.078-9.6094 4.5312-9.6875 10.078-9.6875z"/>
</svg>
