<?xml version="1.0" encoding="UTF-8"?>
<svg fill="#3C1053" width="100pt" height="100pt" version="1.1" viewBox="0 0 100 100" xmlns="http://www.w3.org/2000/svg">
 <g>
  <path d="m95.688 71.73c-3.7891-2.25-7.5859-4.4883-11.383-6.7266l-7.1445-4.2188c-1.5195-0.89844-3.1094-1.3516-4.7344-1.3516-2.3477 0-4.6133 1-6.3828 2.8164-1.2617 1.293-2.5234 2.5781-3.7891 3.8672l-1.1055 1.1211c-1.8242-0.34375-3.5469-1.3125-5.0195-2.1875-3.5859-2.1445-7.1094-4.9727-10.848-8.7227-3.1602-3.1719-6.1484-6.168-8.5234-9.7109-1.582-2.3555-3.1875-4.8906-4-7.7812 0.83203-0.82031 1.6562-1.6484 2.4844-2.4766 0.69922-0.69922 1.3984-1.3984 2.1016-2.0977 2.2891-2.2695 3.5586-6.543 1.4023-9.9883-0.18359-0.28906-0.33203-0.60156-0.48828-0.90625-0.097656-0.19141-0.19141-0.38281-0.29297-0.57422l-2.5078-4.7539c-2.3594-4.4766-4.7227-8.9531-7.0977-13.426-1.0273-1.9297-2.5547-3.2383-4.4219-3.7812-2.4844-0.72266-4.8945-0.042969-6.8867 1.9531l-4.5352 4.5352c-2.9492 2.9453-5.8984 5.8906-8.8281 8.8516-0.77734 0.78125-1.3281 1.6797-1.7656 2.4531-1.0195 1.8047-1.4609 3.832-1.3906 6.3594-0.007812 0.09375-0.011719 0.1875-0.007812 0.28125 0.003906 0.1875 0.03125 0.37109 0.074218 0.54688 0.078125 0.66406 0.13281 1.3438 0.18359 2.0547 0.089844 1.168 0.17969 2.375 0.41016 3.6133 1.0742 5.7969 3.2773 11.602 6.7422 17.738 1.7305 3.0625 3.7461 6.2148 6.543 10.227 3.7695 5.4062 8.2578 10.102 12.547 14.363 3.2812 3.2617 7.6953 7.4805 12.754 11.18 2.3711 1.7344 4.8086 3.3047 6.8828 4.6094 4.5312 2.8594 9.2227 5.2031 13.949 6.9688 5.1289 1.9141 10.262 2.8828 15.262 2.8828h0.0625c3.1523-0.003907 5.9961-1.1953 8.2148-3.4531 0.81641-0.82812 1.6484-1.6484 2.4766-2.4688l2.3203-2.2969c2.7773-2.7539 5.5547-5.5117 8.3281-8.2695 1.3125-1.3047 2.0391-2.8203 2.1719-4.5 0.15625-1.9648-0.375-4.7266-3.7578-6.7305zm-1.2227 6.3477c-0.023438 0.31641-0.12891 0.75781-0.71094 1.3398-2.7734 2.7578-5.5469 5.5117-8.3242 8.2656l-2.3086 2.2891c-0.84766 0.83594-1.6914 1.6719-2.5273 2.5195-1.2969 1.3164-2.8203 1.957-4.6562 1.9609l-0.054688 2.5v-2.5c-4.4609 0-8.8828-0.83984-13.512-2.5664-4.4062-1.6445-8.7891-3.8359-13.031-6.5117-2-1.2617-4.3477-2.7734-6.5977-4.418-4.7852-3.5-9.0195-7.5508-12.176-10.688-4.125-4.1016-8.4297-8.5977-11.973-13.68-2.7031-3.875-4.6406-6.9062-6.2891-9.8242-3.1875-5.6484-5.2109-10.945-6.1836-16.191-0.17969-0.97266-0.25781-1.9961-0.33984-3.0781-0.058594-0.75-0.11328-1.5273-0.21094-2.3164v-0.0625c-0.003906-0.10547-0.011718-0.21484-0.03125-0.31641-0.039062-1.5586 0.19922-2.7461 0.74609-3.7148 0.25781-0.45703 0.59766-1.0273 0.96094-1.3906 2.9258-2.9531 5.8711-5.8945 8.8125-8.832l4.543-4.5391c0.76563-0.76562 1.2695-0.76562 1.4375-0.76562 0.15625 0 0.33203 0.027344 0.51563 0.082031 0.20312 0.058594 0.82422 0.23828 1.4023 1.3281 2.3711 4.4648 4.7305 8.9375 7.0898 13.41l2.5078 4.7539c0.085937 0.16016 0.16406 0.32031 0.24609 0.48047 0.20312 0.40234 0.42969 0.85938 0.71875 1.3164 0.78125 1.25 0.10547 3.0039-0.68359 3.7852-0.70703 0.70312-1.4141 1.4062-2.1172 2.1133-0.83594 0.83594-1.668 1.6719-2.5117 2.5-1.3086 1.2969-1.7656 2.9883-1.2812 4.7656 0.98047 3.6016 2.8555 6.5742 4.6914 9.3086 2.6445 3.9453 5.9453 7.2539 9.1992 10.523 3.9648 3.9805 7.8125 7.0586 11.758 9.418 1.8633 1.1133 4.0742 2.3438 6.7461 2.8281 1.6641 0.30078 3.1719-0.17188 4.3203-1.3438l1.1875-1.207c1.2695-1.2891 2.5391-2.582 3.8047-3.8789 1.4414-1.4766 3.2109-1.7031 4.9922-0.64844l7.1523 4.2227c3.793 2.2383 7.5859 4.4766 11.371 6.7227 1.2969 0.76563 1.3633 1.4297 1.3164 2.0391z"/>
  <path d="m99.469 3.0117c0-0.011719 0.003906-0.023438 0.003906-0.035157-0.003906-0.0625-0.015625-0.12109-0.023437-0.17969-0.007813-0.066406-0.007813-0.13672-0.019531-0.19922-0.003907-0.023437-0.011719-0.042968-0.015626-0.066406-0.015624-0.074219-0.039062-0.14453-0.0625-0.21875-0.019531-0.0625-0.03125-0.125-0.054687-0.18359-0.007813-0.019531-0.019531-0.039062-0.027344-0.058594-0.03125-0.070312-0.070312-0.13672-0.10547-0.20312-0.03125-0.058594-0.058593-0.11719-0.09375-0.17188-0.011718-0.015624-0.023437-0.03125-0.03125-0.050781-0.042968-0.0625-0.09375-0.11719-0.14062-0.17578-0.046876-0.054688-0.085938-0.11328-0.13672-0.16406-0.007813-0.007813-0.015625-0.019532-0.019531-0.027344-0.003907-0.003906-0.011719-0.007813-0.015626-0.011719-0.050781-0.046875-0.10547-0.089844-0.15625-0.13281-0.0625-0.050781-0.11719-0.10156-0.18359-0.14844-0.015625-0.007813-0.027344-0.023437-0.039063-0.03125-0.054687-0.035156-0.11328-0.058594-0.16797-0.089844-0.070313-0.039062-0.13672-0.078125-0.21094-0.10938-0.015625-0.007812-0.03125-0.015625-0.046875-0.023437-0.0625-0.023438-0.12891-0.039063-0.19141-0.058594-0.074219-0.023437-0.14453-0.050781-0.22266-0.066406-0.019531-0.003907-0.03125-0.011719-0.050781-0.011719-0.078125-0.015625-0.15625-0.015625-0.23438-0.023438-0.058594-0.007812-0.11328-0.019531-0.17578-0.023437h-0.074219-0.074218l-28.996 0.85547c-1.3789 0.039062-2.4648 1.1914-2.4258 2.5742 0.039063 1.3555 1.1523 2.4258 2.4961 2.4258h0.074219l22.703-0.67188-34.84 34.844c-0.97656 0.97656-0.97656 2.5586 0 3.5352 0.48828 0.48828 1.1289 0.73047 1.7695 0.73047 0.64062 0 1.2773-0.24219 1.7695-0.73047l34.836-34.84-0.67188 22.703c-0.039062 1.3789 1.0469 2.5312 2.4258 2.5742h0.074219c1.3477 0 2.457-1.0703 2.4961-2.4258l0.85938-28.996c0-0.011719-0.003906-0.023438-0.003906-0.035156 0.003906-0.027344 0.003906-0.050782 0.003906-0.078125z"/>
 </g>
</svg>
