<?xml version="1.0" encoding="UTF-8"?>
<svg fill="#3C1053" width="100pt" height="100pt" version="1.1" viewBox="0 0 100 100" xmlns="http://www.w3.org/2000/svg">
 <g>
  <path d="m50 4.168c-12.156 0-23.812 4.8281-32.41 13.422-8.5938 8.5977-13.422 20.254-13.422 32.41s4.8281 23.812 13.422 32.41c8.5977 8.5938 20.254 13.422 32.41 13.422s23.812-4.8281 32.41-13.422c8.5938-8.5977 13.422-20.254 13.422-32.41-0.011719-12.152-4.8477-23.801-13.438-32.395-8.5938-8.5898-20.242-13.426-32.395-13.438zm0 83.332c-9.9453 0-19.484-3.9492-26.516-10.984-7.0352-7.0312-10.984-16.57-10.984-26.516s3.9492-19.484 10.984-26.516c7.0312-7.0352 16.57-10.984 26.516-10.984s19.484 3.9492 26.516 10.984c7.0352 7.0312 10.984 16.57 10.984 26.516-0.011719 9.9414-3.9688 19.473-10.996 26.504-7.0312 7.0273-16.562 10.984-26.504 10.996z"/>
  <path d="m54.168 48.273v-23.273c0-2.3008-1.8672-4.168-4.168-4.168s-4.168 1.8672-4.168 4.168v25c0 1.1055 0.44141 2.1641 1.2227 2.9453l12.5 12.5c1.6328 1.5781 4.2344 1.5586 5.8398-0.050781 1.6094-1.6055 1.6289-4.207 0.050781-5.8398z"/>
 </g>
</svg>
